<?xml version="1.0" encoding="iso-8859-1"?>
<!-- Generator: Adobe Illustrator 19.0.0, SVG Export Plug-In . SVG Version: 6.00 Build 0)  -->
<svg version="1.1" id="Layer_1" xmlns="http://www.w3.org/2000/svg" xmlns:xlink="http://www.w3.org/1999/xlink" x="0px" y="0px"
	 viewBox="-916.9 977.169 105.4 22.318" style="enable-background:new -916.9 977.169 105.4 22.318;" xml:space="preserve">
<g id="logo_x5F_full">
	<path style="fill:#000a3c;" id="XMLID_44_" d="M-811.6,984.878c-0.4-4.8-3.1-7.9-8.3-7.7c-2.2,0.1-4.2,0.7-6,2c-0.6,0.4-1.1,0.8-1.5-0.2s-0.6-1.1-1.6-1.1
		s-1.2,0.2-1.2,1.2v18.2c0,1.4,0.3,1.6,1.9,1.6c1.5,0,1.9-0.2,1.9-1.6v-13.3c0-0.8-0.1-2.8,0.7-3.6c2.1-2.2,4.9-2.7,6.7-2.3
		c2.3,0.6,4,2.7,4,5.8c0,0.6,0,13.4,0,13.4c0,1.5,0.2,1.6,1.7,1.6s1.8-0.2,1.8-1.6v-10.1
		C-811.5,986.378-811.5,985.678-811.6,984.878z M-883.3,984.878c-0.4-4.6-3.6-7.7-8.3-7.7l0,0c-3.5,0-5.3,1.2-6.5,2.4
		c-0.5,0.5-1.4,1.5-1.4,1.5s-0.7-1.1-1-1.5c-1.5-1.7-3.6-2.3-5.9-2.4c-2.3,0-4.4,0.6-6.2,2c-0.6,0.4-1.1,0.8-1.5-0.2
		s-0.6-1.1-1.6-1.1s-1.2,0.2-1.2,1.2v18.2c0,1.4,0.2,1.6,1.8,1.6c1.5,0,1.8-0.2,1.8-1.6v-13.4c0-0.8,0-2.8,0.8-3.6
		c2.1-2.2,5-2.7,6.8-2.3c2.3,0.6,4,2.7,4,5.8c0,0.6,0,13.4,0,13.4c0,1.5,0.2,1.6,1.7,1.6s1.8-0.2,1.8-1.6c0,0,0-9.2,0-13.4
		c0-0.6,0-2.1,0.7-3.1c1.5-2.1,3.7-3.2,6.4-2.9c1.8,0.2,3.1,1.6,3.8,3c0.4,0.9,0.5,1.3,0.6,1.9c0.1,0.4,0.1,3.1,0.1,4v10.5
		c0,1.5,0.2,1.6,1.8,1.6s1.7-0.2,1.7-1.6v-7.3v-2.9C-883.3,986.378-883.3,985.678-883.3,984.878z M-837.3,977.178
		c-1.5,0-1.9,0.2-1.9,1.6v14c0,0.8,0.1,2.8-0.7,3.6c-2.1,2.2-4.9,2.7-6.7,2.3c-2.3-0.6-4-2.7-4-5.8c0-0.6,0-14.1,0-14.1
		c0-1.5-0.2-1.6-1.7-1.6s-1.8,0.2-1.8,1.6v10.8c0,0.8,0,1.5,0.1,2.2c0.4,4.8,3.1,7.9,8.3,7.7c2.2-0.1,4.2-0.7,6-2
		c0.6-0.4,1.1-0.8,1.5,0.2s0.6,1.1,1.6,1.1s1.2-0.2,1.2-1.2v-18.8C-835.4,977.478-835.8,977.178-837.3,977.178z M-861.2,977.178
		c-1.5,0-1.9,0.2-1.9,1.6v14c0,0.8,0.1,2.8-0.7,3.6c-2.1,2.2-4.9,2.7-6.7,2.3c-2.3-0.6-4-2.7-4-5.8c0-0.6,0-14.1,0-14.1
		c0-1.5-0.2-1.6-1.7-1.6s-1.8,0.2-1.8,1.6v10.8c0,0.8,0,1.5,0.1,2.2c0.4,4.8,3.1,7.9,8.3,7.7c2.2-0.1,4.2-0.7,6-2
		c0.6-0.4,1.1-0.8,1.5,0.2s0.6,1.1,1.6,1.1s1.2-0.2,1.2-1.2v-18.8C-859.4,977.478-859.7,977.178-861.2,977.178z"/>
</g>
<g id="Layer_1_1_">
</g>
</svg>
